# xmcd
#
# Track frame offsets:
#	150
#	15922
#	30132
#	47705
#	64847
#	79622
#	94905
#	112760
#	130692
#	146422
#	160935
#	178907
#	189412
#	205459
#	220860
#
# Disc length: 3159
#
# Revision: 2
# Processed by: cddbd v1.5.1PL0 Copyright (c) Steve Scherf et al.
# Submitted via: CDex 1.50
# Normalized: r1:TRMNUM
#
DISCID=bf0c550f
DTITLE=os 3 xirús - banda show
DYEAR=1900
DGENRE=Country
TTITLE0=las pras bandas do sul
TTITLE1=alemanha no brasil
TTITLE2=Churrasco de vaca louca
TTITLE3=a pistola do meu tio
TTITLE4=quem cochicha o rabo espicha
TTITLE5=jogando bolãozinho
TTITLE6=linda catarina
TTITLE7=tô maluco por você
TTITLE8=bolachinha com xá
TTITLE9=titico e titaco
TTITLE10=pentelhando no fandango
TTITLE11=pombinha mensageira
TTITLE12=gaúcho de coração
TTITLE13=baila senhorita
TTITLE14=mandioca velha
EXTD=
EXTT0=
EXTT1=
EXTT2=
EXTT3=
EXTT4=
EXTT5=
EXTT6=
EXTT7=
EXTT8=
EXTT9=
EXTT10=
EXTT11=
EXTT12=
EXTT13=
EXTT14=
PLAYORDER=
